# xmcd
#
# Track frame offsets: 
#        150
#        38076
#        61495
#        93297
#        138378
#        155963
#        170980
#        195626
#        234472
#
# Disc length: 4040 seconds
#
# Revision: 1
# Processed by: cddbd v1.5.2PL0 Copyright (c) Steve Scherf et al.
# Submitted via: ExactAudioCopy v0.99pb5
#
DISCID=7e0fc609
DTITLE=Loka - Fire Shepherds
DYEAR=2006
DGENRE=Jazz
TTITLE0=Safe Self Tester
TTITLE1=Meet Dad
TTITLE2=Airfling
TTITLE3=Freda Mae
TTITLE4=Beginningless
TTITLE5=Tabernacle part1
TTITLE6=Tabernacle part2
TTITLE7=Blockhead Sunday Seance(Loka remix)
TTITLE8=PV
EXTD=YEAR: 2006
EXTT0=
EXTT1=
EXTT2=
EXTT3=
EXTT4=
EXTT5=
EXTT6=
EXTT7=
EXTT8=
PLAYORDER=
